<?xml version="1.0" encoding="UTF-8"?>
<svg xmlns="http://www.w3.org/2000/svg" xmlns:xlink="http://www.w3.org/1999/xlink" width="32px" height="32px" viewBox="0 0 32 32" version="1.1">
<g id="surface1">
<path style=" stroke:none;fill-rule:nonzero;fill:rgb(89.803922%,34.901962%,30.980393%);fill-opacity:1;" d="M 2.871094 7.453125 C 1.9375 7.453125 1.179688 8.210938 1.179688 9.144531 C 1.179688 10.078125 1.9375 10.835938 2.871094 10.835938 C 3.804688 10.835938 4.5625 10.078125 4.5625 9.144531 C 4.5625 8.210938 3.804688 7.453125 2.871094 7.453125 Z M 2.871094 7.453125 "/>
<path style=" stroke:none;fill-rule:nonzero;fill:rgb(76.862746%,37.254903%,62.7451%);fill-opacity:1;" d="M 2.871094 14.453125 C 1.9375 14.453125 1.179688 15.210938 1.179688 16.144531 C 1.179688 17.078125 1.9375 17.835938 2.871094 17.835938 C 3.804688 17.835938 4.5625 17.078125 4.5625 16.144531 C 4.5625 15.210938 3.804688 14.453125 2.871094 14.453125 Z M 2.871094 14.453125 "/>
<path style=" stroke:none;fill-rule:nonzero;fill:rgb(95.294118%,60.392159%,16.862746%);fill-opacity:1;" d="M 2.871094 21.453125 C 1.9375 21.453125 1.179688 22.210938 1.179688 23.144531 C 1.179688 24.078125 1.9375 24.835938 2.871094 24.835938 C 3.804688 24.835938 4.5625 24.078125 4.5625 23.144531 C 4.5625 22.210938 3.804688 21.453125 2.871094 21.453125 Z M 2.871094 21.453125 "/>
<path style=" stroke:none;fill-rule:nonzero;fill:rgb(94.117647%,81.568629%,26.274511%);fill-opacity:1;" d="M 29.414062 7.335938 L 10.28125 7.335938 C 9.378906 7.335938 8.648438 8.066406 8.648438 8.96875 L 8.648438 9.085938 C 8.648438 9.988281 9.378906 10.71875 10.28125 10.71875 L 29.414062 10.71875 C 30.316406 10.71875 31.046875 9.988281 31.046875 9.085938 L 31.046875 8.96875 C 31.046875 8.066406 30.316406 7.335938 29.414062 7.335938 Z M 29.414062 7.335938 "/>
<path style=" stroke:none;fill-rule:nonzero;fill:rgb(29.019609%,33.725491%,60.000002%);fill-opacity:1;" d="M 29.414062 21.335938 L 10.28125 21.335938 C 9.378906 21.335938 8.648438 22.066406 8.648438 22.96875 L 8.648438 23.085938 C 8.648438 23.988281 9.378906 24.71875 10.28125 24.71875 L 29.414062 24.71875 C 30.316406 24.71875 31.046875 23.988281 31.046875 23.085938 L 31.046875 22.96875 C 31.046875 22.066406 30.316406 21.335938 29.414062 21.335938 Z M 29.414062 21.335938 "/>
<path style=" stroke:none;fill-rule:nonzero;fill:rgb(89.803922%,34.901962%,30.980393%);fill-opacity:1;" d="M 22.179688 14.335938 L 10.28125 14.335938 C 9.378906 14.335938 8.648438 15.066406 8.648438 15.96875 L 8.648438 16.085938 C 8.648438 16.988281 9.378906 17.71875 10.28125 17.71875 L 22.179688 17.71875 C 23.082031 17.71875 23.8125 16.988281 23.8125 16.085938 L 23.8125 15.96875 C 23.8125 15.066406 23.082031 14.335938 22.179688 14.335938 Z M 22.179688 14.335938 "/>
</g>
</svg>
